<?xml version="1.0" encoding="UTF-8"?>
<svg xmlns="http://www.w3.org/2000/svg" xmlns:xlink="http://www.w3.org/1999/xlink" viewBox="0 0 96 96" width="96px" height="96px">
<defs>
<linearGradient id="linear0" gradientUnits="userSpaceOnUse" x1="83.549004" y1="48.710941" x2="83.549004" y2="114.920189" gradientTransform="matrix(0.55814,0,0,0.55814,0,0)">
<stop offset="0" style="stop-color:rgb(100%,100%,99.607843%);stop-opacity:1;"/>
<stop offset="1" style="stop-color:rgb(85.882354%,70.980394%,61.960787%);stop-opacity:1;"/>
</linearGradient>
<linearGradient id="linear1" gradientUnits="userSpaceOnUse" x1="85.997307" y1="48.710941" x2="85.997307" y2="114.920189" gradientTransform="matrix(0.55814,0,0,0.55814,0,0)">
<stop offset="0" style="stop-color:rgb(100%,100%,99.607843%);stop-opacity:1;"/>
<stop offset="1" style="stop-color:rgb(85.882354%,70.980394%,61.960787%);stop-opacity:1;"/>
</linearGradient>
<linearGradient id="linear2" gradientUnits="userSpaceOnUse" x1="80.748627" y1="48.710941" x2="80.748627" y2="114.920189" gradientTransform="matrix(0.55814,0,0,0.55814,0,0)">
<stop offset="0" style="stop-color:rgb(100%,100%,99.607843%);stop-opacity:1;"/>
<stop offset="1" style="stop-color:rgb(85.882354%,70.980394%,61.960787%);stop-opacity:1;"/>
</linearGradient>
<linearGradient id="linear3" gradientUnits="userSpaceOnUse" x1="85.997307" y1="9.74219" x2="85.997307" y2="155.595505" gradientTransform="matrix(0.55814,0,0,0.55814,0,0)">
<stop offset="0" style="stop-color:rgb(86.274511%,76.078433%,69.411767%);stop-opacity:1;"/>
<stop offset="1" style="stop-color:rgb(74.117649%,46.27451%,29.803923%);stop-opacity:1;"/>
</linearGradient>
</defs>
<g id="surface150690">
<path style=" stroke:none;fill-rule:nonzero;fill:url(#linear0);" d="M 68.085938 48.839844 C 56.484375 41.710938 39.511719 39.703125 25.859375 43.847656 C 24.3125 44.316406 23.4375 45.949219 23.902344 47.503906 C 24.375 49.046875 26.011719 49.921875 27.5625 49.453125 C 39.515625 45.824219 54.917969 47.625 65.019531 53.832031 C 66.398438 54.679688 68.203125 54.25 69.050781 52.867188 C 69.898438 51.492188 69.464844 49.6875 68.085938 48.839844 "/>
<path style=" stroke:none;fill-rule:nonzero;fill:url(#linear1);" d="M 73.035156 36.164062 C 59.085938 27.882812 37.011719 27.101562 23.734375 31.132812 C 21.875 31.699219 20.828125 33.660156 21.390625 35.519531 C 21.953125 37.378906 23.917969 38.425781 25.773438 37.863281 C 37.34375 34.351562 57.328125 35.011719 69.445312 42.207031 C 71.113281 43.199219 73.273438 42.648438 74.261719 40.976562 C 75.253906 39.3125 74.710938 37.15625 73.035156 36.164062 "/>
<path style=" stroke:none;fill-rule:nonzero;fill:url(#linear2);" d="M 63.675781 59.882812 C 53.765625 53.828125 41.484375 52.417969 27.164062 55.695312 C 25.902344 55.980469 25.113281 57.238281 25.402344 58.5 C 25.6875 59.757812 26.945312 60.550781 28.207031 60.257812 C 41.292969 57.273438 52.402344 58.488281 61.230469 63.882812 C 62.335938 64.558594 63.777344 64.210938 64.453125 63.105469 C 65.128906 62 64.777344 60.554688 63.675781 59.882812 "/>
<path style=" stroke:none;fill-rule:nonzero;fill:url(#linear3);" d="M 48 85.5 C 26.492188 85.5 9 68.003906 9 46.5 C 9 24.996094 26.492188 7.5 48 7.5 C 69.503906 7.5 87 24.996094 87 46.5 C 87 68.003906 69.503906 85.5 48 85.5 Z M 48 10.5 C 28.148438 10.5 12 26.652344 12 46.5 C 12 66.347656 28.148438 82.5 48 82.5 C 67.847656 82.5 84 66.347656 84 46.5 C 84 26.652344 67.847656 10.5 48 10.5 Z M 48 10.5 "/>
</g>
</svg>
